<?xml version="1.0" standalone="no"?>
<!DOCTYPE svg PUBLIC "-//W3C//DTD SVG 20010904//EN"
 "http://www.w3.org/TR/2001/REC-SVG-20010904/DTD/svg10.dtd">
<svg version="1.0" xmlns="http://www.w3.org/2000/svg"
 width="512.000000pt" height="512.000000pt" viewBox="0 0 512.000000 512.000000"
 preserveAspectRatio="xMidYMid meet">
<metadata>
Created by potrace 1.14, written by Peter Selinger 2001-2017
</metadata>
<g transform="translate(0.000000,512.000000) scale(0.100000,-0.100000)"
fill="#000000" stroke="none">
<path d="M2060 4676 c-197 -42 -349 -124 -491 -265 -148 -148 -227 -304 -275
-548 l-4 -23 -338 0 c-204 0 -352 -4 -375 -11 -49 -13 -105 -63 -128 -114 -18
-38 -19 -102 -19 -1273 0 -1220 0 -1233 21 -1294 52 -154 179 -262 339 -287
36 -6 161 -11 278 -11 l212 0 0 1093 c0 1042 1 1094 19 1132 23 49 64 89 113
109 33 14 185 16 1338 16 l1300 0 0 238 c0 208 -3 242 -19 277 -23 51 -79 101
-128 114 -23 7 -171 11 -375 11 l-338 0 -4 23 c-48 244 -127 400 -275 548
-125 125 -261 204 -426 249 -102 28 -327 36 -425 16z m355 -440 c87 -31 154
-76 219 -147 54 -59 110 -158 122 -218 l7 -31 -523 0 -522 0 6 31 c11 58 67
158 119 215 84 92 207 160 322 178 61 9 186 -5 250 -28z"/>
<path d="M1819 2742 c-43 -22 -59 -38 -81 -81 l-28 -54 2 -931 3 -931 32 -67
c44 -94 109 -160 202 -206 l75 -37 1176 0 1176 0 75 37 c93 46 158 112 202
206 l32 67 3 931 2 931 -28 54 c-22 43 -38 59 -81 81 l-53 28 -1328 0 -1328 0
-53 -28z m746 -458 c16 -152 75 -274 185 -385 124 -125 277 -189 451 -189 330
1 599 246 635 578 l7 62 214 0 215 0 -7 -77 c-21 -236 -105 -438 -258 -622
-124 -150 -337 -283 -542 -338 -89 -24 -118 -27 -265 -27 -146 0 -176 3 -262
27 -184 49 -355 145 -483 272 -188 185 -296 416 -320 688 l-7 77 215 0 215 0
7 -66z"/>
</g>
</svg>
